<!-- Generated by IcoMoon.io -->
<svg version="1.1" xmlns="http://www.w3.org/2000/svg" width="1024" height="1024" viewBox="0 0 1024 1024">
<title></title>
<g id="icomoon-ignore">
</g>
<path fill="#000" d="M747.872 944.928c0 0 10.72-64.384-55.392-143.008 64.352-180.512 73.28-344.896 73.28-344.896s132.256 30.4 132.256 160.832c-0.032 223.392-150.144 327.072-150.144 327.072zM383.328 866.496c0 0-88.576-284.256-88.576-402.176 0-53.056 5.984-100.256 15.296-143.104h403.52c9.376 42.88 15.392 90.112 15.392 143.136 0 116.128-88.32 402.144-88.32 402.144h-257.312zM511.68 386.208c-45.376 0-82.176 36.8-82.176 82.208 0 45.376 36.8 82.208 82.176 82.208 45.408 0 82.208-36.8 82.208-82.208 0.032-45.408-36.8-82.208-82.208-82.208zM494.016 19.072v-111.936h32v109.088c36.576 26.624 135.552 111.296 180.32 274.4h-389.12c43.264-158.624 137.472-242.368 176.8-271.552zM276.128 944.928c0 0-150.112-103.68-150.112-327.072 0-130.432 132.256-160.832 132.256-160.832s8.928 164.384 73.248 344.896c-66.144 78.656-55.392 143.008-55.392 143.008zM566.112 961.44l-26.816-26.816-28.576 89.376-33.984-89.376-23.232 46.432-33.984-84h184.064l-37.472 64.384z"></path>
</svg>
